<svg xmlns="http://www.w3.org/2000/svg" xmlns:xlink="http://www.w3.org/1999/xlink" width="204" height="24" viewBox="0 0 204 24">
    <defs>
        <path id="a" d="M0 .399h15.133V21.16H0z"/>
        <path id="c" d="M.41.253h15.702V16.56H.41z"/>
        <path id="e" d="M.814.253h14.514V16.56H.814z"/>
        <path id="g" d="M.197.705h5.476v22.05H.197z"/>
        <path id="i" d="M.227.253h13.904V16.56H.227z"/>
        <path id="k" d="M.746.399h15.132V21.16H.746z"/>
    </defs>
    <g fill="none" fill-rule="evenodd">
        <g transform="translate(0 2.34)">
            <mask id="b" fill="#fff">
                <use xlink:href="#a"/>
            </mask>
            <path fill="#000" d="M7.012 17.05c.92 0 1.633-.321 2.143-.965.51-.644.764-1.6.764-2.867 0-1.288-.26-2.25-.78-2.883-.519-.634-1.218-.95-2.097-.95-.4 0-.744.04-1.034.122-.29.082-.604.204-.944.368v6.685c.22.143.485.26.795.353.31.092.694.138 1.153.138zM0 .707C.2.644.52.578.96.506 1.398.435 1.847.4 2.307.4c.44 0 .834.03 1.183.092.35.061.645.184.884.368.24.184.42.434.54.751.12.317.18.731.18 1.242v3.006c.499-.205.973-.348 1.423-.43.45-.082.944-.122 1.483-.122.959 0 1.868.173 2.727.52a6.738 6.738 0 0 1 2.277 1.519c.66.664 1.179 1.487 1.559 2.469.38.98.569 2.116.569 3.404 0 1.328-.195 2.489-.584 3.48-.39.992-.934 1.815-1.634 2.469-.699.654-1.553 1.15-2.562 1.487-1.008.338-2.122.506-3.34.506-1.32 0-2.438-.158-3.357-.475-.919-.317-1.698-.71-2.337-1.18C.439 18.87 0 18.052 0 17.05V.706z" mask="url(#b)"/>
        </g>
        <path fill="#000" d="M23 23.228c-.238.04-.59.096-1.055.166a9.405 9.405 0 0 1-2.695.015 2.275 2.275 0 0 1-.958-.363 1.766 1.766 0 0 1-.6-.741c-.142-.313-.212-.721-.212-1.225V3.532c.238-.04.59-.096 1.055-.166a9.405 9.405 0 0 1 2.695-.015c.38.06.698.181.958.363.26.181.46.428.6.741.142.313.212.721.212 1.225v17.548z"/>
        <g transform="translate(25.76 6.94)">
            <mask id="d" fill="#fff">
                <use xlink:href="#c"/>
            </mask>
            <path fill="#000" d="M5.624 8.39c0 1.283.234 2.266.704 2.95.47.683 1.123 1.025 1.963 1.025.839 0 1.483-.347 1.932-1.04.45-.695.675-1.673.675-2.934 0-1.262-.23-2.235-.69-2.918-.46-.683-1.108-1.025-1.947-1.025-.84 0-1.489.342-1.948 1.025-.46.683-.69 1.656-.69 2.918m10.489 0c0 1.303-.19 2.465-.57 3.485-.38 1.02-.914 1.877-1.603 2.57a6.766 6.766 0 0 1-2.472 1.578c-.959.358-2.028.536-3.206.536-1.18 0-2.248-.189-3.207-.568a7.014 7.014 0 0 1-2.472-1.624c-.69-.704-1.224-1.561-1.603-2.57-.38-1.01-.57-2.146-.57-3.407 0-1.241.19-2.366.57-3.375.38-1.01.914-1.867 1.603-2.571A7.014 7.014 0 0 1 5.054.82C6.014.442 7.082.253 8.261.253c1.178 0 2.247.194 3.206.583a7.198 7.198 0 0 1 2.472 1.64c.69.705 1.224 1.562 1.603 2.571.38 1.01.57 2.124.57 3.344" mask="url(#d)"/>
        </g>
        <path fill="#000" d="M53.1 11.922c-.505 0-.985.08-1.44.242-.454.162-.848.4-1.181.712a3.48 3.48 0 0 0-.803 1.167c-.202.465-.303 1.01-.303 1.637 0 1.253.358 2.192 1.075 2.819.718.626 1.592.94 2.622.94.606 0 1.131-.071 1.576-.213a9.681 9.681 0 0 0 1.182-.454c.404.283.707.59.909.924.202.333.303.733.303 1.197 0 .829-.394 1.47-1.182 1.925-.788.455-1.879.682-3.273.682-1.273 0-2.424-.187-3.455-.56-1.03-.375-1.914-.9-2.652-1.577a6.975 6.975 0 0 1-1.712-2.44c-.404-.95-.606-2-.606-3.152 0-1.334.217-2.5.652-3.5.434-1.001 1.025-1.825 1.772-2.471a7.513 7.513 0 0 1 2.592-1.455 9.85 9.85 0 0 1 3.106-.485c1.455 0 2.576.263 3.364.788.788.525 1.182 1.202 1.182 2.03 0 .385-.091.743-.273 1.077a3.752 3.752 0 0 1-.636.864 9.85 9.85 0 0 0-1.243-.47 5.258 5.258 0 0 0-1.576-.227M73.6 20.437c-.106.99-.389 1.747-.856 2.273-.467.527-1.146.79-2.038.79-.667 0-1.258-.163-1.774-.49-.519-.326-1.079-.879-1.68-1.658l-3.082-3.916v5.748c-.228.042-.565.1-1.01.174-.447.074-.9.11-1.355.11-.456 0-.866-.031-1.229-.094a2.077 2.077 0 0 1-.918-.38 1.82 1.82 0 0 1-.576-.773c-.135-.326-.202-.753-.202-1.28V2.657c.228-.063.565-.132 1.011-.205a8.291 8.291 0 0 1 2.583-.016c.363.063.67.19.918.379.25.19.441.447.576.773.135.327.202.753.202 1.28v8.337l5.353-5.558c1.08 0 1.945.242 2.599.726.653.484.98 1.095.98 1.832 0 .316-.052.605-.156.868a3.184 3.184 0 0 1-.482.806 7.19 7.19 0 0 1-.84.868c-.342.306-.742.658-1.198 1.058l-1.805 1.58 4.979 5.053zM83.46 11.922c-.505 0-.985.08-1.44.242-.454.162-.848.4-1.181.712a3.48 3.48 0 0 0-.803 1.167c-.202.465-.303 1.01-.303 1.637 0 1.253.358 2.192 1.075 2.819.718.626 1.592.94 2.622.94.606 0 1.131-.071 1.576-.213a9.681 9.681 0 0 0 1.182-.454c.404.283.707.59.909.924.202.333.303.733.303 1.197 0 .829-.394 1.47-1.182 1.925-.788.455-1.879.682-3.273.682-1.273 0-2.424-.187-3.455-.56-1.03-.375-1.914-.9-2.652-1.577a6.975 6.975 0 0 1-1.712-2.44c-.404-.95-.606-2-.606-3.152 0-1.334.217-2.5.652-3.5.434-1.001 1.025-1.825 1.772-2.471a7.513 7.513 0 0 1 2.592-1.455 9.85 9.85 0 0 1 3.106-.485c1.455 0 2.576.263 3.364.788.788.525 1.182 1.202 1.182 2.03 0 .385-.091.743-.273 1.077a3.752 3.752 0 0 1-.636.864 9.85 9.85 0 0 0-1.243-.47 5.258 5.258 0 0 0-1.576-.227M104.88 23.228c-.205.06-.529.12-.97.181-.441.06-.9.091-1.37.091-.452 0-.86-.03-1.217-.09a2.093 2.093 0 0 1-.908-.364 1.75 1.75 0 0 1-.57-.741c-.133-.313-.2-.721-.2-1.225v-6.717c0-.827-.213-1.407-.631-1.74-.421-.332-.94-.499-1.556-.499-.41 0-.8.05-1.17.152-.37.1-.667.222-.893.363v10.589c-.205.06-.529.12-.97.181-.444.06-.898.091-1.37.091-.452 0-.857-.03-1.22-.09a2.095 2.095 0 0 1-.905-.364 1.75 1.75 0 0 1-.57-.741c-.133-.313-.2-.721-.2-1.225V3.532c.226-.04.557-.096 1-.166a8.469 8.469 0 0 1 2.557-.015c.36.06.662.181.908.363.247.181.437.428.57.741.133.313.2.721.2 1.225v2.965c.267-.1.67-.217 1.217-.348a7.685 7.685 0 0 1 1.798-.196c2.033 0 3.621.499 4.758 1.497 1.142.999 1.712 2.486 1.712 4.463v9.167z"/>
        <g transform="translate(106.72 6.94)">
            <mask id="f" fill="#fff">
                <use xlink:href="#e"/>
            </mask>
            <path fill="#000" d="M8.07 12.65a6.96 6.96 0 0 0 1.174-.111c.427-.074.745-.174.954-.3V9.716l-2.252.189c-.582.042-1.064.168-1.44.378-.375.21-.56.526-.56.947 0 .42.16.762.483 1.025.323.263.87.394 1.642.394M7.82.253c1.126 0 2.153.116 3.08.347.929.231 1.721.583 2.378 1.057a4.758 4.758 0 0 1 1.517 1.797c.354.726.532 1.583.532 2.571v7.066c0 .547-.151.993-.454 1.34a4.527 4.527 0 0 1-1.079.9c-1.355.82-3.264 1.23-5.724 1.23-1.105 0-2.101-.106-2.987-.316-.887-.21-1.648-.526-2.281-.946A4.316 4.316 0 0 1 1.33 13.69c-.344-.652-.516-1.409-.516-2.271 0-1.45.427-2.565 1.282-3.344.855-.778 2.18-1.261 3.973-1.45l4.098-.442v-.22c0-.61-.266-1.047-.798-1.31-.532-.263-1.298-.394-2.3-.394-.792 0-1.56.084-2.311.252-.754.168-1.431.379-2.036.631-.271-.19-.5-.478-.686-.867a2.73 2.73 0 0 1-.284-1.215c0-.547.13-.983.394-1.309.258-.326.66-.604 1.201-.836.605-.231 1.32-.4 2.143-.504.824-.106 1.6-.158 2.33-.158" mask="url(#f)"/>
        </g>
        <g transform="translate(125.12 .5)">
            <mask id="h" fill="#fff">
                <use xlink:href="#g"/>
            </mask>
            <path fill="#000" d="M5.437 22.478c-.216.041-.535.098-.959.17a7.596 7.596 0 0 1-2.441.014 1.927 1.927 0 0 1-.868-.368 1.764 1.764 0 0 1-.545-.75c-.13-.318-.191-.732-.191-1.243V7.82c.215-.041.534-.095.956-.169a7.603 7.603 0 0 1 2.444-.015c.34.061.633.184.868.368.236.184.417.434.545.751.128.317.191.734.191 1.242v12.481zM.197 3.465c0-.777.25-1.431.75-1.963C1.449.971 2.112.705 2.933.705c.825 0 1.49.266 1.99.797.5.532.75 1.186.75 1.963 0 .777-.25 1.431-.75 1.963-.5.531-1.165.797-1.99.797-.821 0-1.484-.266-1.984-.797-.5-.532-.751-1.186-.751-1.963z" mask="url(#h)"/>
        </g>
        <path fill="#000" d="M142.882 13.79c0-.635-.18-1.1-.536-1.398-.362-.297-.847-.445-1.463-.445-.41 0-.818.05-1.219.153-.4.103-.741.256-1.031.461v10.662a7.097 7.097 0 0 1-.968.185 9.996 9.996 0 0 1-1.373.092c-.451 0-.857-.03-1.214-.092a2.06 2.06 0 0 1-.91-.369 1.749 1.749 0 0 1-.568-.753c-.136-.317-.2-.732-.2-1.244v-9.218c0-.553.115-1.004.352-1.352.236-.348.559-.666.97-.953.698-.491 1.575-.89 2.633-1.198 1.057-.307 2.235-.461 3.528-.461 2.32 0 4.104.507 5.359 1.521 1.252 1.014 1.878 2.422 1.878 4.225v9.617a7.208 7.208 0 0 1-.973.185 9.92 9.92 0 0 1-1.367.092 7.27 7.27 0 0 1-1.22-.092 2.051 2.051 0 0 1-.905-.369 1.8 1.8 0 0 1-.573-.753c-.136-.317-.2-.732-.2-1.244V13.79zM151.475 17.98c-.146-.246-.28-.57-.407-.974a4.277 4.277 0 0 1-.188-1.276c0-.828.177-1.427.535-1.796.352-.37.81-.554 1.374-.554h6.696c.126.246.256.57.392.974.135.403.203.828.203 1.276 0 .828-.177 1.427-.532 1.796-.355.37-.814.554-1.377.554h-6.696zM167.44 23.228c-.238.04-.59.096-1.058.166a9.343 9.343 0 0 1-2.692.015c-.38-.06-.701-.181-.958-.363a1.766 1.766 0 0 1-.6-.741c-.144-.313-.212-.721-.212-1.225V3.532c.238-.04.59-.096 1.055-.166.463-.07.934-.106 1.413-.106.476 0 .904.03 1.282.09.376.061.698.182.958.364.26.181.46.428.6.741.142.313.212.721.212 1.225v17.548z"/>
        <g transform="translate(169.28 6.94)">
            <mask id="j" fill="#fff">
                <use xlink:href="#i"/>
            </mask>
            <path fill="#000" d="M7.18 12.65c.339 0 .713-.038 1.123-.111.407-.074.712-.174.911-.3V9.716l-2.155.189c-.559.042-1.019.168-1.38.378-.358.21-.537.526-.537.947 0 .42.154.762.464 1.025.31.263.834.394 1.573.394M6.94.253C8.02.253 9 .369 9.891.6c.887.231 1.648.583 2.277 1.057a4.736 4.736 0 0 1 1.454 1.797c.34.726.51 1.583.51 2.571v7.066c0 .547-.146.993-.435 1.34-.29.347-.637.647-1.034.9-1.299.82-3.129 1.23-5.484 1.23-1.059 0-2.015-.106-2.862-.316-.849-.21-1.578-.526-2.187-.946A4.247 4.247 0 0 1 .722 13.69c-.33-.652-.495-1.409-.495-2.271 0-1.45.41-2.565 1.229-3.344.819-.778 2.087-1.261 3.803-1.45l3.928-.442v-.22c0-.61-.255-1.047-.764-1.31-.51-.263-1.244-.394-2.203-.394-.759 0-1.498.084-2.217.252-.722.168-1.369.379-1.948.631-.26-.19-.48-.478-.66-.867a2.863 2.863 0 0 1-.269-1.215c0-.547.125-.983.375-1.309.25-.326.631-.604 1.153-.836.58-.231 1.261-.4 2.053-.504C5.497.305 6.24.253 6.939.253" mask="url(#j)"/>
        </g>
        <g transform="translate(186.76 2.34)">
            <mask id="l" fill="#fff">
                <use xlink:href="#k"/>
            </mask>
            <path fill="#000" d="M7.758 17.05c.919 0 1.633-.321 2.142-.965.51-.644.764-1.6.764-2.867 0-1.288-.26-2.25-.779-2.883-.519-.634-1.218-.95-2.097-.95-.4 0-.744.04-1.034.122a5.71 5.71 0 0 0-.944.368v6.685c.22.143.484.26.794.353.31.092.692.138 1.154.138zM.746.707c.197-.062.517-.128.959-.2C2.145.435 2.594.4 3.053.4c.44 0 .834.03 1.184.092.347.061.644.184.884.368s.42.434.54.751c.12.317.179.731.179 1.242v3.006c.5-.205.974-.348 1.423-.43.45-.082.944-.122 1.484-.122.959 0 1.868.173 2.727.52a6.738 6.738 0 0 1 2.277 1.519c.66.664 1.179 1.487 1.558 2.469.38.98.57 2.116.57 3.404 0 1.328-.195 2.489-.585 3.48-.39.992-.934 1.815-1.633 2.469-.7.654-1.553 1.15-2.562 1.487-1.009.338-2.123.506-3.341.506-1.319 0-2.44-.158-3.356-.475-.92-.317-1.698-.71-2.338-1.18C1.185 18.87.746 18.052.746 17.05V.706z" mask="url(#l)"/>
        </g>
    </g>
</svg>
